<?xml version="1.0" encoding="utf-8"?>
<!-- Generator: Adobe Illustrator 15.0.0, SVG Export Plug-In . SVG Version: 6.00 Build 0)  -->
<!DOCTYPE svg PUBLIC "-//W3C//DTD SVG 1.1//EN" "http://www.w3.org/Graphics/SVG/1.1/DTD/svg11.dtd">
<svg version="1.1" id="Calque_1" xmlns="http://www.w3.org/2000/svg" xmlns:xlink="http://www.w3.org/1999/xlink" x="0px" y="0px"
	 width="1200px" height="900px" viewBox="0 0 1200 900" enable-background="new 0 0 1200 900" xml:space="preserve">
<g>
	<path fill="#002955" d="M240.902,458.533c3.236-4.809,9.815-14.495,20.032-29.366l0.099-0.145
		c8.895-12.946,17.307-25.179,27.484-36.082c5.326-5.708,12.557-9.26,18.867-9.26c4.68,0,10.847,1.952,13.639,11.243
		c3.598,11.939,2.584,34.232,2.3,39.387C317.373,436.526,285.901,447.967,240.902,458.533L240.902,458.533z"/>
	<path fill="#002955" d="M212.007,444.64c0.428-21.945,9.3-42.498,24.979-57.852C252.644,371.45,273.326,363,295.225,363
		c0.55,0,1.102,0.01,1.662,0.013c33.248,0.653,62.638,20.768,75.319,51.391c-4.368,2.027-16.105,7.334-32.426,13.691
		c-2.239-14.703-5.08-32.03-7.766-41.125c-3.17-10.713-10.878-16.848-21.15-16.848c-5.845,0-12.265,1.924-19.074,5.726
		c-7.893,4.411-21.995,15.618-41.927,33.338c-15.896,14.133-30.833,28.907-37.862,35.991
		C212,445.001,212.007,444.818,212.007,444.64L212.007,444.64z"/>
	<path fill="#002955" d="M295.286,529.533c-0.551,0-1.099-0.006-1.655-0.018c-29.199-0.568-56.085-16.537-70.614-41.814
		c10.81-4.615,49.483-20.508,99.31-33.543l-6.371,72.775C309.231,528.666,302.281,529.533,295.286,529.533L295.286,529.533
		L295.286,529.533z"/>
	<path fill="#002955" d="M349.524,509.422c-1.094-10.555-4.059-38.531-6.89-60.038c19.023-3.799,30.827-5.719,35.818-6.486
		c0.07,1.672,0.089,3.348,0.054,5.003C378.041,471.707,367.52,493.955,349.524,509.422L349.524,509.422z"/>
	<path fill="#002955" d="M448.485,364.018h15.877l44.421,103.125h-20.972l-9.614-23.599h-44.715l-9.323,23.599h-20.538
		L448.485,364.018L448.485,364.018z M471.788,427.81l-15.874-41.944l-16.17,41.944H471.788L471.788,427.81z"/>
	<path fill="#002955" d="M575.195,467.143h-16.603v-11.219h-0.29c-3.208,6.992-9.761,12.965-21.413,12.965
		c-18.792,0-25.488-13.256-25.488-27.53v-44.133h17.479v35.396c0,7.719,0.581,20.533,12.816,20.533
		c11.506,0,16.023-8.447,16.023-17.769v-38.16h17.476V467.143L575.195,467.143z"/>
	<path fill="#002955" d="M643.066,456.648h-0.291c-5.1,8.453-14.275,12.24-24.031,12.24c-21.559,0-34.52-16.024-34.52-36.706
		c0-20.682,13.837-36.704,33.788-36.704c13.111,0,20.104,6.121,23.748,10.636h0.434v-42.097h17.48v103.125h-16.607V456.648
		L643.066,456.648z M622.24,453.155c12.814,0,20.535-10.05,20.535-20.972c0-10.928-7.721-20.971-20.535-20.971
		c-12.818,0-20.539,10.043-20.539,20.971C601.701,443.105,609.422,453.155,622.24,453.155L622.24,453.155z"/>
	<path fill="#002955" d="M686.176,438.301c1.166,10.346,9.029,16.605,18.789,16.605c8.738,0,14.418-4.076,18.787-9.47l12.531,9.47
		c-8.162,10.047-18.504,13.982-29.57,13.982c-21.123,0-38.016-14.707-38.016-36.706c0-21.99,16.893-36.704,38.016-36.704
		c19.516,0,32.771,13.692,32.771,38.016v4.806H686.176L686.176,438.301z M722.008,425.194c-0.146-10.197-6.85-16.607-17.771-16.607
		c-10.346,0-16.752,6.555-18.061,16.607H722.008L722.008,425.194z"/>
	<path fill="#002955" d="M748.51,397.226h16.607v11.216h0.287c3.209-6.99,9.764-12.963,21.412-12.963
		c18.787,0,25.488,13.257,25.488,27.527v44.136h-17.477v-35.398c0-7.717-0.582-20.532-12.818-20.532
		c-11.506,0-16.021,8.447-16.021,17.767v38.164H748.51V397.226L748.51,397.226z"/>
	<path fill="#002955" d="M872.602,418.203c-4.082-4.226-8.598-6.991-13.254-6.991c-12.816,0-20.541,10.043-20.541,20.971
		c0,10.922,7.725,20.972,20.541,20.972c5.387,0,10.34-2.325,13.545-6.553l11.654,12.527c-7.139,7.137-19.086,9.76-25.199,9.76
		c-21.119,0-38.016-14.707-38.016-36.706c0-21.99,16.896-36.704,38.016-36.704c8.887,0,18.645,3.204,25.346,10.636L872.602,418.203
		L872.602,418.203z"/>
	<path fill="#002955" d="M896.633,363c6.406,0,11.357,4.515,11.357,10.483c0,5.973-4.951,10.489-11.357,10.489
		c-6.41,0-11.07-4.955-11.07-10.489C885.563,367.954,890.223,363,896.633,363L896.633,363z M888.039,397.226h17.479v69.917h-17.479
		V397.226L888.039,397.226z"/>
	<path fill="#002955" d="M962.029,457.527h-0.439c-4.951,7.867-13.109,11.361-22.428,11.361c-12.965,0-25.49-7.137-25.49-20.975
		c0-22.72,26.51-24.326,43.99-24.326h4.367v-1.895c0-8.59-6.701-13.107-16.021-13.107c-7.281,0-13.98,2.914-18.643,7.282
		l-9.176-9.174c7.719-7.867,18.645-11.216,29.713-11.216c29.859,0,29.859,21.559,29.859,31.461v40.203h-15.732V457.527
		L962.029,457.527z M961.012,435.825h-3.641c-9.617,0-26.221,0.728-26.221,10.777c0,6.41,6.555,9.173,12.236,9.173
		c11.941,0,17.625-6.26,17.625-16.016V435.825L961.012,435.825z"/>
	
		<text transform="matrix(1 0 0 1 400.5972 527.168)" fill="#002955" font-family="'AvenirLTStd-Black'" font-size="45.0286" letter-spacing="11">BUSINESS SCHOOL</text>
</g>
</svg>
